<svg width="250" height="250" viewBox="0 0 250 250" fill="none" xmlns="http://www.w3.org/2000/svg">
<circle cx="125" cy="125" r="125" fill="#0028B8"/>
<circle cx="125" cy="125" r="115" fill="white"/>
<path d="M146.562 145.766V158H100.391C100.891 153.375 102.391 149 104.891 144.875C107.391 140.719 112.328 135.219 119.703 128.375C125.641 122.844 129.281 119.094 130.625 117.125C132.438 114.406 133.344 111.719 133.344 109.062C133.344 106.125 132.547 103.875 130.953 102.312C129.391 100.719 127.219 99.9219 124.438 99.9219C121.688 99.9219 119.5 100.75 117.875 102.406C116.25 104.062 115.312 106.812 115.062 110.656L101.938 109.344C102.719 102.094 105.172 96.8906 109.297 93.7344C113.422 90.5781 118.578 89 124.766 89C131.547 89 136.875 90.8281 140.75 94.4844C144.625 98.1406 146.562 102.688 146.562 108.125C146.562 111.219 146 114.172 144.875 116.984C143.781 119.766 142.031 122.688 139.625 125.75C138.031 127.781 135.156 130.703 131 134.516C126.844 138.328 124.203 140.859 123.078 142.109C121.984 143.359 121.094 144.578 120.406 145.766H146.562Z" fill="#0028B8"/>
</svg>
