<svg width="250" height="250" viewBox="0 0 250 250" fill="none" xmlns="http://www.w3.org/2000/svg">
<circle cx="125" cy="125" r="125" fill="#0028B8"/>
<circle cx="125" cy="125" r="115" fill="white"/>
<path d="M101.609 139.766L114.359 138.219C114.766 141.469 115.859 143.953 117.641 145.672C119.422 147.391 121.578 148.25 124.109 148.25C126.828 148.25 129.109 147.219 130.953 145.156C132.828 143.094 133.766 140.312 133.766 136.812C133.766 133.5 132.875 130.875 131.094 128.938C129.312 127 127.141 126.031 124.578 126.031C122.891 126.031 120.875 126.359 118.531 127.016L119.984 116.281C123.547 116.375 126.266 115.609 128.141 113.984C130.016 112.328 130.953 110.141 130.953 107.422C130.953 105.109 130.266 103.266 128.891 101.891C127.516 100.516 125.688 99.8281 123.406 99.8281C121.156 99.8281 119.234 100.609 117.641 102.172C116.047 103.734 115.078 106.016 114.734 109.016L102.594 106.953C103.438 102.797 104.703 99.4844 106.391 97.0156C108.109 94.5156 110.484 92.5625 113.516 91.1562C116.578 89.7188 120 89 123.781 89C130.25 89 135.438 91.0625 139.344 95.1875C142.562 98.5625 144.172 102.375 144.172 106.625C144.172 112.656 140.875 117.469 134.281 121.062C138.219 121.906 141.359 123.797 143.703 126.734C146.078 129.672 147.266 133.219 147.266 137.375C147.266 143.406 145.062 148.547 140.656 152.797C136.25 157.047 130.766 159.172 124.203 159.172C117.984 159.172 112.828 157.391 108.734 153.828C104.641 150.234 102.266 145.547 101.609 139.766Z" fill="#0028B8"/>
</svg>
